<svg id="Layer_1" data-name="Layer 1" xmlns="http://www.w3.org/2000/svg" viewBox="0 0 83.48 201.05"><defs><style>.cls-1{fill:#f4cd10;}.cls-2{fill:#f2f2f2;}.cls-3{fill:#fbfbfb;}</style></defs><title>torchLogo</title><path class="cls-1" d="M76.51-62.46c2.14,2.11,2.67,4.56,3,7.08,1,8.47-1.09,16.41-4.24,24.13C69.71-17.72,60.22-7.57,47.68-.34A60.74,60.74,0,0,1,34.54,4.9C44.51,6.26,71.14-8.81,77-27.43c1.09.68,1,1.8,1.12,2.83.77,8.52-2.81,15.53-8,21.8C61.33,7.88,49.51,13.46,36.34,16.63c-2.15.52-4.31,1-6.42,1.6,14.7.87,26.51-5.76,37.78-15a19.8,19.8,0,0,1-6.33,12.59c-6.17,6.09-13.92,9.06-22.22,10.65a53.19,53.19,0,0,1-25.66-.86C2.66,22.38-2.43,16-3.61,3.59-5-11.47,5.79-22.15,16.26-26.74a28,28,0,0,1,9.47-2.54c1.06-.07,2.41-.33,3,.57,1.33,1.88,3,1.41,4.86,1.42,2.36,0,4.85.19,6,2.86a2.48,2.48,0,0,1,0,2.43c-.5.73-1.26.13-1.91,0A8.44,8.44,0,0,0,30-18.89c-2.81,3.15-4,7-4.57,11.08-.29,1.9.92,1.26,1.85,1A60.12,60.12,0,0,0,63.61-31.12,68.65,68.65,0,0,0,75.76-60.29,7.81,7.81,0,0,1,76-61.4,10.85,10.85,0,0,1,76.51-62.46ZM24-25.26c-.12-.11-.21-.28-.33-.29a2.77,2.77,0,0,0-.91,0A28.22,28.22,0,0,0,2.09-8.48c-.91,2.08.6,3.36,2.06,4.34C5.9-3,6.26-4.76,6.94-5.77,8.4-7.94,9.29-8,10.84-6.09,12.61-3.92,13.4-4,15-6.29s2.31-2.25,4.1-.27a3.69,3.69,0,0,0,.32.33c.57.49,1,1.27,1.91,1.06,1-.25.65-1.24.77-1.93.68-3.92,1.39-7.81,3.55-11.28.65-1.05,1.51-1.91,2.21-2.91.48-.69,1-1.51.33-2.28s-1.38,0-2,.38c-.81.43-1.54,1-2.37,1.39s-1.91.77-2.42-.27c-.44-.88.42-1.51,1.14-2C23-24.41,23.85-24.43,24-25.26Z" transform="translate(3.74 62.46)"/><path class="cls-2" d="M33.75,37.45c8.95,0,17.89,0,26.84,0,1.73,0,2.53.39,2.31,2.27-.28,2.48,1.06,5.74-.52,7.27s-4.67.5-7.08.33-3,.61-2.66,2.76S52.12,53,50,52.69a22.2,22.2,0,0,0-3,0c-3.62,0-3.59,0-3.83,3.53q-1.84,28.13-3.71,56.27c-.54,8.08-1.24,16.15-1.73,24.23-.09,1.57-.63,1.87-2,1.88-6,.06-6,.09-6.37-5.92C28.25,116.34,27,100,25.91,83.73c-.68-9.68-1.36-19.36-1.93-29-.09-1.6-.55-2.13-2.12-2-1.75.12-3.52,0-5.27,0-1.3.06-1.9-.21-1.89-1.73,0-3.63-.07-3.63-3.72-3.63-1.61,0-3.22-.07-4.82,0-1.19.06-1.63-.31-1.58-1.54a48,48,0,0,0,0-6c-.15-1.86.38-2.48,2.35-2.46C15.86,37.51,24.81,37.45,33.75,37.45Z" transform="translate(3.74 62.46)"/><path class="cls-3" d="M24-25.26c-.19.82-1,.85-1.53,1.21-.71.48-1.57,1.1-1.14,2,.51,1,1.6.64,2.42.27s1.56-1,2.37-1.39c.62-.33,1.27-1.18,2-.38s.16,1.59-.33,2.28c-.7,1-1.55,1.86-2.21,2.91C23.47-14.9,22.76-11,22.08-7.09c-.12.69.27,1.68-.77,1.93C20.43-5,20-5.74,19.39-6.22a3.69,3.69,0,0,1-.32-.33c-1.79-2-2.61-1.93-4.1.27s-2.37,2.37-4.13.2C9.29-8,8.4-7.94,6.94-5.77c-.68,1-1,2.8-2.79,1.62-1.45-1-3-2.25-2.06-4.34A28.22,28.22,0,0,1,22.8-25.54a2.77,2.77,0,0,1,.91,0C23.82-25.53,23.92-25.37,24-25.26Z" transform="translate(3.74 62.46)"/></svg>